# File created by Blade
# Date/Time:  Mon Sep 22 15:39:46 2014
# Frame Rate: 120.000 fps
#------------------------------------------------------
:FULLY-SPECIFIED
:DEGREES
2090
root 1.379574 37.059272 2.771309 0.230143 -8.472152 0.321736
RightUpLeg 8.267801 -2.790878 -1.207425
RightLeg -6.131198 -0.000000 0.000000
RightFoot -11.110611 -12.378492 16.191136
RightToeBase 15.560815 -0.000000 -0.000000
LeftUpLeg 8.153809 5.939290 4.128796
LeftLeg -2.997336 -0.000000 0.000000
LeftFoot -10.721692 14.815028 -19.080192
LeftToeBase 8.306261 -0.000000 -0.000000
Spine 1.362201 -0.959244 -9.587118
RightShoulder -3.251810 -3.137029 -27.758505
RightArm -146.952190 117.400006 -104.931147
RightForeArm 105.168639 -0.000000 -1.003082
RightHand -0.597338 -0.000000 -42.838956
RightHandThumb1 -24.326973 -0.000000 -32.862282
LeftShoulder -13.281520 34.210851 -3.905106
LeftArm 38.029885 5.947291 -65.760892
LeftForeArm 18.572976 -0.000000 21.547022
LeftHand -15.006236 -0.000000 -7.361630
LeftHandThumb1 -26.253704 0.000000 33.147579
Head 3.557432 -36.934751 0.104751
2091
root 1.375234 37.061397 2.765147 0.202115 -8.517134 0.304615
RightUpLeg 8.271547 -2.740183 -1.183746
RightLeg -6.106631 -0.000000 0.000000
RightFoot -11.112652 -12.361819 16.229921
RightToeBase 15.592870 -0.000000 -0.000000
LeftUpLeg 8.204249 5.912543 4.147507
LeftLeg -3.039342 -0.000000 0.000000
LeftFoot -10.715990 14.897375 -19.086162
LeftToeBase 8.367177 -0.000000 -0.000000
Spine 1.402537 -0.899931 -9.597017
RightShoulder -3.129712 -3.046470 -27.581905
RightArm -147.112073 117.688893 -104.474580
RightForeArm 105.147004 0.000000 -1.071168
RightHand 0.123293 -0.000000 -44.021751
RightHandThumb1 -24.326973 -0.000000 -32.862282
LeftShoulder -13.270871 34.207170 -3.751957
LeftArm 38.162923 6.087627 -65.762268
LeftForeArm 18.960316 -0.000000 21.443356
LeftHand -15.053433 0.000000 -7.748060
LeftHandThumb1 -26.253704 0.000000 33.147579
Head 3.456414 -36.860065 0.145904
2092
root 1.372782 37.066102 2.755956 0.213292 -8.550218 0.279925
RightUpLeg 8.221615 -2.692325 -1.149167
RightLeg -6.062561 -0.000000 0.000000
RightFoot -11.083960 -12.371703 16.251781
RightToeBase 15.571386 -0.000000 -0.000000
LeftUpLeg 8.185916 5.930132 4.171505
LeftLeg -3.039746 -0.000000 0.000000
LeftFoot -10.685805 14.930056 -19.084891
LeftToeBase 8.393494 -0.000000 -0.000000
Spine 1.399573 -0.819526 -9.574799
RightShoulder -3.021224 -3.083846 -27.443091
RightArm -147.426030 118.108142 -104.221887
RightForeArm 105.569717 -0.000000 -0.980745
RightHand 0.565158 -0.000000 -44.506967
RightHandThumb1 -24.326973 -0.000000 -32.862282
LeftShoulder -13.187415 34.164255 -3.601396
LeftArm 38.178492 6.163690 -65.807102
LeftForeArm 19.466609 -0.000000 21.463660
LeftHand -15.158822 -0.000000 -8.011470
LeftHandThumb1 -26.253704 0.000000 33.147579
Head 3.374315 -36.676259 0.249419
2093
root 1.371010 37.072853 2.746416 0.262975 -8.584827 0.264577
RightUpLeg 8.122223 -2.660653 -1.122409
RightLeg -6.002621 -0.000000 0.000000
RightFoot -11.053498 -12.398178 16.227992
RightToeBase 15.554041 -0.000000 -0.000000
LeftUpLeg 8.113411 5.911087 4.172860
LeftLeg -3.014463 -0.000000 0.000000
LeftFoot -10.676383 15.012380 -19.113158
LeftToeBase 8.429326 -0.000000 -0.000000
Spine 1.342624 -0.723622 -9.560300
RightShoulder -2.945164 -3.297226 -27.287946
RightArm -147.281342 118.378906 -103.624806
RightForeArm 105.991111 -0.000000 -0.882216
RightHand 0.734675 -0.000000 -43.906854
RightHandThumb1 -24.326973 -0.000000 -32.862282
LeftShoulder -13.117189 34.150608 -3.480491
LeftArm 38.196878 6.199856 -65.844548
LeftForeArm 19.966745 -0.000000 21.521207
LeftHand -15.110764 -0.000000 -8.450118
LeftHandThumb1 -26.253704 0.000000 33.147579
Head 3.330496 -36.558065 0.375801
2094
root 1.372116 37.080261 2.732510 0.361414 -8.589796 0.258133
RightUpLeg 7.962819 -2.646489 -1.102145
RightLeg -5.932693 -0.000000 0.000000
RightFoot -11.016180 -12.448111 16.200046
RightToeBase 15.480225 -0.000000 -0.000000
LeftUpLeg 7.957576 5.900009 4.158337
LeftLeg -2.950463 -0.000000 0.000000
LeftFoot -10.674647 15.072760 -19.121126
LeftToeBase 8.477652 -0.000000 -0.000000
Spine 1.244346 -0.632239 -9.550622
RightShoulder -2.918644 -3.386799 -27.149442
RightArm -147.326922 118.580849 -103.262166
RightForeArm 106.473120 -0.000000 -0.789249
RightHand 0.622500 0.000000 -42.467609
RightHandThumb1 -24.326973 -0.000000 -32.862282
LeftShoulder -13.041934 34.148241 -3.374493
LeftArm 38.205700 6.222410 -65.873431
LeftForeArm 20.406173 -0.000000 21.629790
LeftHand -15.002207 -0.000000 -8.848795
LeftHandThumb1 -26.253704 0.000000 33.147579
Head 3.305233 -36.624207 0.479050
2095
root 1.376598 37.088280 2.714774 0.500058 -8.564089 0.259785
RightUpLeg 7.753885 -2.679505 -1.095719
RightLeg -5.848027 -0.000000 0.000000
RightFoot -11.014930 -12.432597 16.267087
RightToeBase 15.530759 -0.000000 -0.000000
LeftUpLeg 7.745722 5.810006 4.121726
LeftLeg -2.880997 -0.000000 0.000000
LeftFoot -10.671715 15.179079 -19.135613
LeftToeBase 8.508593 -0.000000 -0.000000
Spine 1.110893 -0.584067 -9.532801
RightShoulder -2.933287 -3.424627 -26.983348
RightArm -147.236560 118.716659 -102.919654
RightForeArm 107.065833 -0.000000 -0.740809
RightHand 0.654696 -0.000000 -40.769995
RightHandThumb1 -24.326973 -0.000000 -32.862282
LeftShoulder -12.986038 34.125325 -3.306438
LeftArm 38.172054 6.198984 -65.913977
LeftForeArm 20.879456 -0.000000 21.792235
LeftHand -14.902563 0.000000 -9.339891
LeftHandThumb1 -26.253704 0.000000 33.147579
Head 3.287274 -36.750890 0.562460
2096
root 1.384108 37.096017 2.698959 0.648541 -8.526524 0.276085
RightUpLeg 7.546583 -2.718365 -1.110624
RightLeg -5.782530 -0.000000 0.000000
RightFoot -10.986074 -12.429931 16.299784
RightToeBase 15.503170 -0.000000 -0.000000
LeftUpLeg 7.553480 5.633506 4.063021
LeftLeg -2.874626 -0.000000 0.000000
LeftFoot -10.668974 15.319367 -19.235014
LeftToeBase 8.590570 -0.000000 -0.000000
Spine 0.955916 -0.535849 -9.512099
RightShoulder -2.998059 -3.482678 -26.828153
RightArm -147.066427 118.847442 -102.615065
RightForeArm 107.669706 0.000000 -0.638303
RightHand 0.287625 -0.000000 -39.111167
RightHandThumb1 -24.326973 -0.000000 -32.862282
LeftShoulder -12.929488 34.101839 -3.261485
LeftArm 38.132107 6.167567 -65.953153
LeftForeArm 21.240614 -0.000000 21.943061
LeftHand -14.857146 -0.000000 -9.644764
LeftHandThumb1 -26.253704 0.000000 33.147579
Head 3.291379 -36.925846 0.600144
2097
root 1.387887 37.102813 2.682585 0.793527 -8.465723 0.277670
RightUpLeg 7.369610 -2.752752 -1.099621
RightLeg -5.764297 -0.000000 0.000000
RightFoot -10.899703 -12.523871 16.206627
RightToeBase 15.391753 -0.000000 -0.000000
LeftUpLeg 7.272849 5.741160 4.046395
LeftLeg -2.686425 -0.000000 0.000000
LeftFoot -10.658632 15.226002 -19.156247
LeftToeBase 8.637211 -0.000000 -0.000000
Spine 0.818721 -0.521010 -9.477948
RightShoulder -3.078325 -3.525082 -26.670469
RightArm -146.776185 118.924812 -102.297154
RightForeArm 108.193788 -0.000000 -0.479055
RightHand 0.064084 -0.000000 -37.980861
RightHandThumb1 -24.326973 -0.000000 -32.862282
LeftShoulder -12.893256 34.044166 -3.223692
LeftArm 38.059150 6.145918 -65.972939
LeftForeArm 21.395938 -0.000000 22.098511
LeftHand -14.716925 0.000000 -9.812230
LeftHandThumb1 -26.253704 0.000000 33.147579
Head 3.298978 -37.149462 0.615387
2098
root 1.396593 37.108259 2.669927 0.925783 -8.394434 0.295546
RightUpLeg 7.191109 -2.888381 -1.121935
RightLeg -5.703247 -0.000000 0.000000
RightFoot -10.928166 -12.447642 16.281024
RightToeBase 15.506487 -0.000000 -0.000000
LeftUpLeg 7.054283 5.765988 4.006513
LeftLeg -2.592446 -0.000000 0.000000
LeftFoot -10.624555 15.169546 -19.126979
LeftToeBase 8.639640 -0.000000 -0.000000
Spine 0.686483 -0.522164 -9.432590
RightShoulder -3.130066 -3.564920 -26.540712
RightArm -146.499636 118.953353 -102.101126
RightForeArm 108.609544 0.000000 -0.255484
RightHand -0.028456 0.000000 -37.657283
RightHandThumb1 -24.326973 -0.000000 -32.862282
LeftShoulder -12.865644 34.018662 -3.210670
LeftArm 38.004594 6.153907 -65.962700
LeftForeArm 21.333267 -0.000000 22.231103
LeftHand -14.556992 -0.000000 -9.775239
LeftHandThumb1 -26.253704 0.000000 33.147579
Head 3.351251 -37.426435 0.542220
2099
root 1.408680 37.111168 2.657905 1.047598 -8.310530 0.327695
RightUpLeg 7.048226 -2.995168 -1.161258
RightLeg -5.697419 -0.000000 0.000000
RightFoot -10.904699 -12.432877 16.264153
RightToeBase 15.499639 -0.000000 -0.000000
LeftUpLeg 6.879612 5.675677 3.944432
LeftLeg -2.571351 -0.000000 0.000000
LeftFoot -10.612215 15.185300 -19.144653
LeftToeBase 8.764718 -0.000000 -0.000000
Spine 0.569161 -0.554113 -9.377741
RightShoulder -3.155881 -3.572851 -26.510559
RightArm -146.258616 118.970363 -101.950959
RightForeArm 108.738890 -0.000000 -0.007544
RightHand 0.095185 -0.000000 -37.925237
RightHandThumb1 -24.326973 -0.000000 -32.862282
LeftShoulder -12.870614 34.052845 -3.247949
LeftArm 38.013682 6.142098 -65.903908
LeftForeArm 21.185574 -0.000000 22.360059
LeftHand -14.462626 0.000000 -9.815366
LeftHandThumb1 -26.253704 0.000000 33.147579
Head 3.404935 -37.663647 0.414117
2100
root 1.419169 37.112962 2.647984 1.154261 -8.239026 0.363988
RightUpLeg 6.941020 -3.050182 -1.204872
RightLeg -5.721680 -0.000000 0.000000
RightFoot -10.890688 -12.448893 16.276082
RightToeBase 15.533753 -0.000000 -0.000000
LeftUpLeg 6.717785 5.704070 3.893623
LeftLeg -2.533030 -0.000000 0.000000
LeftFoot -10.572555 15.088432 -19.134519
LeftToeBase 8.818770 -0.000000 -0.000000
Spine 0.462208 -0.576042 -9.322560
RightShoulder -3.143619 -3.485821 -26.527303
RightArm -146.259233 119.024518 -102.094609
RightForeArm 108.771440 0.000000 0.173149
RightHand 0.357911 0.000000 -38.389889
RightHandThumb1 -24.326973 -0.000000 -32.862282
LeftShoulder -12.873897 34.109222 -3.283147
LeftArm 38.027594 6.151991 -65.812132
LeftForeArm 20.991465 -0.000000 22.507133
LeftHand -14.553530 -0.000000 -9.707246
LeftHandThumb1 -26.253704 0.000000 33.147579
Head 3.488451 -37.893054 0.229829
2101
root 1.430221 37.113824 2.640778 1.230618 -8.159771 0.396657
RightUpLeg 6.872310 -3.127077 -1.247619
RightLeg -5.752927 -0.000000 0.000000
RightFoot -10.894763 -12.433466 16.310297
RightToeBase 15.561131 -0.000000 -0.000000
LeftUpLeg 6.605126 5.709454 3.846883
LeftLeg -2.524812 -0.000000 0.000000
LeftFoot -10.525846 15.014423 -19.114275
LeftToeBase 8.828238 -0.000000 -0.000000
Spine 0.396888 -0.617469 -9.254716
RightShoulder -3.138482 -3.405991 -26.607208
RightArm -146.226317 119.127428 -102.231316
RightForeArm 108.614124 -0.000000 0.299940
RightHand 0.598828 -0.000000 -38.833238
RightHandThumb1 -24.326973 -0.000000 -32.862282
LeftShoulder -12.898654 34.165575 -3.328962
LeftArm 38.059439 6.168940 -65.717754
LeftForeArm 20.585195 -0.000000 22.613680
LeftHand -14.505354 0.000000 -9.407142
LeftHandThumb1 -26.253704 0.000000 33.147579
Head 3.583140 -38.123909 0.087201
2102
root 1.442634 37.113648 2.635775 1.270951 -8.108255 0.444269
RightUpLeg 6.836259 -3.186482 -1.310748
RightLeg -5.783041 -0.000000 0.000000
RightFoot -10.886228 -12.424765 16.296452
RightToeBase 15.553730 -0.000000 -0.000000
LeftUpLeg 6.547085 5.738741 3.785801
LeftLeg -2.542712 -0.000000 0.000000
LeftFoot -10.480422 14.946674 -19.112937
LeftToeBase 8.897892 -0.000000 -0.000000
Spine 0.369494 -0.625954 -9.200355
RightShoulder -3.145774 -3.371667 -26.731494
RightArm -146.146219 119.305980 -102.354261
RightForeArm 108.534246 -0.000000 0.392552
RightHand 1.121047 0.000000 -39.337104
RightHandThumb1 -24.326973 -0.000000 -32.862282
LeftShoulder -12.898971 34.204382 -3.376143
LeftArm 38.064105 6.162371 -65.618599
LeftForeArm 20.289200 -0.000000 22.728591
LeftHand -14.505684 -0.000000 -9.189584
LeftHandThumb1 -26.253704 0.000000 33.147579
Head 3.693551 -38.387169 -0.104620
